<svg width="21" height="20" viewBox="0 0 21 20" fill="none" xmlns="http://www.w3.org/2000/svg">
<path d="M0.5 10C0.5 4.47715 4.97715 0 10.5 0C16.0228 0 20.5 4.47715 20.5 10C20.5 15.5228 16.0228 20 10.5 20C4.97715 20 0.5 15.5228 0.5 10Z" fill="white"/>
<path d="M8.5 6H12.5" stroke="black" stroke-width="2" stroke-linejoin="round"/>
<path d="M10.5 13V8" stroke="black" stroke-width="2"/>
<path d="M7.5 14L6.51005 14.1414C6.58043 14.6341 7.00235 15 7.5 15V14ZM13.5 14V15C13.9977 15 14.4196 14.6341 14.4899 14.1414L13.5 14ZM14.4837 7.11414L15.4736 7.25556L14.4837 7.11414ZM7.5 15H13.5V13H7.5V15ZM14.4899 14.1414L15.4736 7.25556L13.4937 6.97272L12.5101 13.8586L14.4899 14.1414ZM14.3847 6H6.6153V8H14.3847V6ZM5.52636 7.25556L6.51005 14.1414L8.48995 13.8586L7.50626 6.97272L5.52636 7.25556ZM6.6153 6C5.9459 6 5.43169 6.59288 5.52636 7.25556L7.50626 6.97272C7.58371 7.51491 7.16299 8 6.6153 8V6ZM15.4736 7.25556C15.5683 6.59289 15.0541 6 14.3847 6V8C13.837 8 13.4163 7.51491 13.4937 6.97272L15.4736 7.25556Z" fill="black"/>
</svg>
