<svg width="159" height="159" viewBox="0 0 159 159" fill="none" xmlns="http://www.w3.org/2000/svg">
<path d="M0.5 8.5C0.5 4.08172 4.08172 0.5 8.5 0.5H150.5C154.918 0.5 158.5 4.08172 158.5 8.5V150.5C158.5 154.918 154.918 158.5 150.5 158.5H8.5C4.08172 158.5 0.5 154.918 0.5 150.5V8.5Z" fill="#8A70FF" fill-opacity="0.06"/>
<rect x="70.5" y="71.5" width="18" height="16" rx="1" stroke="black" stroke-width="2"/>
<path d="M70.5 79.5L72.2976 80.8074C74.484 82.3975 77.4638 82.329 79.5748 80.6401L82.4141 78.3687C83.0669 77.8465 83.9756 77.7854 84.6925 78.2155L88.5 80.5" stroke="black" stroke-width="2"/>
<circle cx="75.5" cy="76.5" r="2" fill="black"/>
</svg>
