<svg width="130" height="32" viewBox="0 0 130 32" fill="none" xmlns="http://www.w3.org/2000/svg">
<path d="M69.6356 14.7757C68.8178 15.3979 68.8178 16.5977 69.6356 17.2243C71.0756 18.3219 72 20.0505 72 22.0014V31.2446C72 31.6623 71.6622 32 71.2445 32H42C40.0489 32 38.32 31.0712 37.2222 29.6359C36.6 28.8182 35.4 28.8182 34.7733 29.6359C33.68 31.0668 31.9511 31.9956 30 31.9956H0.755556C0.337778 31.9956 0 31.6578 0 31.2401V21.9969C0 20.0461 0.928889 18.3175 2.36444 17.2198C3.18222 16.5977 3.18222 15.3979 2.36444 14.7713C0.928889 13.6781 0 11.9495 0 9.99861V0.755451C0 0.337731 0.337778 0 0.755556 0H30C31.9511 0 33.68 0.92876 34.7778 2.36412C35.4 3.18178 36.6 3.18178 37.2267 2.36412C38.32 0.92876 40.0489 0 42 0H71.2445C71.6622 0 72 0.337731 72 0.755451V9.99861C72 11.9495 71.0711 13.6781 69.6356 14.7757Z" fill="black"/>
<path d="M17.6455 11.8912C17.8631 11.8912 18.0935 11.904 18.3239 11.9424V9.99676C17.9783 9.90716 17.5687 9.85596 17.1719 9.85596C15.2647 9.85596 14.1255 10.944 14.1255 12.6592V12.8H13.0119V14.7712H14.1255V19.2H16.5447V14.7712H18.3239V12.8H16.5447V12.7488C16.5447 12.16 16.8775 11.8912 17.6455 11.8912Z" fill="white"/>
<path d="M22.8882 19.328C25.1026 19.328 26.613 17.9712 26.613 16C26.613 14.0288 25.1026 12.672 22.8882 12.672C20.6738 12.672 19.1506 14.0288 19.1506 16C19.1506 17.9712 20.6738 19.328 22.8882 19.328ZM22.8882 17.3184C22.133 17.3184 21.6082 16.7808 21.6082 16C21.6082 15.2192 22.133 14.6944 22.8882 14.6944C23.6434 14.6944 24.1554 15.2192 24.1554 16C24.1554 16.7808 23.6434 17.3184 22.8882 17.3184Z" fill="white"/>
<path d="M31.1257 19.328C33.3401 19.328 34.8505 17.9712 34.8505 16C34.8505 14.0288 33.3401 12.672 31.1257 12.672C28.9113 12.672 27.3881 14.0288 27.3881 16C27.3881 17.9712 28.9113 19.328 31.1257 19.328ZM31.1257 17.3184C30.3705 17.3184 29.8457 16.7808 29.8457 16C29.8457 15.2192 30.3705 14.6944 31.1257 14.6944C31.8809 14.6944 32.3929 15.2192 32.3929 16C32.3929 16.7808 31.8809 17.3184 31.1257 17.3184Z" fill="white"/>
<path d="M40.72 9.98396V13.9904C40.3488 13.1456 39.6448 12.672 38.6592 12.672C36.944 12.672 35.6256 14.1056 35.6256 16.0128C35.6256 17.9328 36.9568 19.328 38.6592 19.328C39.6576 19.328 40.3488 18.8672 40.72 18.0224V19.2H43.1904V9.98396H40.72ZM39.4784 17.2928C38.6976 17.2928 38.16 16.768 38.16 16C38.16 15.2448 38.6976 14.72 39.4784 14.72C40.2336 14.72 40.7584 15.2192 40.784 15.9488V16.064C40.7584 16.7936 40.2336 17.2928 39.4784 17.2928Z" fill="white"/>
<path d="M47.4348 17.3824L50.1612 14.3104V12.8128H44.6444V14.6304H47.1532L44.414 17.7024V19.2H50.4044V17.3824H47.4348Z" fill="white"/>
<path d="M56.3197 12.8V15.9744C56.3197 16.6528 55.9229 17.088 55.3213 17.088C54.7709 17.088 54.4637 16.7424 54.4637 16.1536V12.8H51.9549V16.6528C51.9549 18.1632 52.8125 19.136 54.2845 19.136C55.3085 19.136 56.0253 18.6752 56.3581 17.8304L56.3709 17.8432V19.4944C56.3709 20.2496 55.8077 20.7232 54.8733 20.7232C53.9517 20.7232 53.3629 20.2496 53.3757 19.5072H51.0077C50.9949 21.3248 52.5437 22.6688 54.8989 22.6688C57.1517 22.6688 58.7645 21.4272 58.7645 19.4944V12.8128L56.3197 12.8Z" fill="white"/>
<path d="M81.8288 19.4882C83.7509 19.4882 85.0409 18.5723 85.0409 17.1791C85.0409 15.7472 83.6219 15.5279 82.9124 15.4505L81.416 15.2828C81.1322 15.257 80.8355 15.1538 80.8355 14.8055C80.8355 14.4443 81.1451 14.2379 81.6353 14.2379C82.1126 14.2379 82.448 14.4314 82.577 14.7797H84.6668C84.4991 13.5284 83.4413 12.7931 81.7385 12.7931C79.9196 12.7931 78.8747 13.6316 78.8747 14.8958C78.8747 16.3019 80.2292 16.4696 80.9258 16.5599L82.448 16.7276C82.7318 16.7663 83.0285 16.9082 83.0285 17.2823C83.0285 17.7338 82.6028 18.0176 81.8933 18.0176C81.0548 18.0176 80.4872 17.6048 80.4227 16.9598H78.32C78.4361 18.5207 79.868 19.514 81.8546 19.514L81.8288 19.4882Z" fill="black"/>
<path d="M90.5265 12.9092V16.289C90.5265 17.1791 90.0105 17.7467 89.2107 17.7467C88.5012 17.7467 88.0755 17.2952 88.0755 16.5341V12.9092H85.9857V16.934C85.9857 18.5078 86.9016 19.4882 88.3464 19.4882C89.3784 19.4882 90.1395 18.9851 90.5136 18.1208H90.5265V19.3592H92.5776V12.9092H90.5265Z" fill="black"/>
<path d="M98.3737 12.7802C97.3417 12.7802 96.5677 13.2704 96.1678 14.1476H96.142V12.9092H94.0909V22.7132H96.1549V18.1208H96.1807C96.5806 18.9851 97.3417 19.4882 98.3737 19.4882C100.128 19.4882 101.483 18.0692 101.483 16.1342C101.483 14.2121 100.141 12.7802 98.3737 12.7802ZM97.7287 17.7596C96.7612 17.7596 96.0775 17.0888 96.0775 16.1471C96.0775 15.1925 96.7612 14.5217 97.7287 14.5217C98.6962 14.5217 99.367 15.1925 99.367 16.1342C99.367 17.0888 98.6833 17.7596 97.7287 17.7596Z" fill="black"/>
<path d="M106.99 12.7802C105.958 12.7802 105.184 13.2704 104.785 14.1476H104.759V12.9092H102.708V22.7132H104.772V18.1208H104.797C105.197 18.9851 105.958 19.4882 106.99 19.4882C108.745 19.4882 110.099 18.0692 110.099 16.1342C110.099 14.2121 108.758 12.7802 106.99 12.7802ZM106.345 17.7596C105.378 17.7596 104.694 17.0888 104.694 16.1471C104.694 15.1925 105.378 14.5217 106.345 14.5217C107.313 14.5217 107.984 15.1925 107.984 16.1342C107.984 17.0888 107.3 17.7596 106.345 17.7596Z" fill="black"/>
<path d="M114.627 19.4882C116.794 19.4882 118.304 18.1208 118.304 16.1342C118.304 14.1476 116.794 12.7802 114.627 12.7802C112.46 12.7802 110.964 14.1476 110.964 16.1342C110.964 18.1208 112.46 19.4882 114.627 19.4882ZM114.627 17.7725C113.673 17.7725 113.015 17.0888 113.015 16.1213C113.015 15.1538 113.673 14.4701 114.627 14.4701C115.569 14.4701 116.227 15.1538 116.227 16.1213C116.227 17.0888 115.569 17.7725 114.627 17.7725Z" fill="black"/>
<path d="M123.55 12.7802C122.415 12.7802 121.718 13.4897 121.395 14.9603H121.383V12.9092H119.409V19.3592H121.473V17.1275C121.473 15.6698 122.04 14.8313 123.421 14.8313C123.55 14.8313 123.73 14.8313 123.872 14.8313V12.7802C123.756 12.7673 123.627 12.7673 123.524 12.7673L123.55 12.7802Z" fill="black"/>
<path d="M128.901 17.7467C128.14 17.7467 127.791 17.45 127.791 16.7792V14.5733H129.791V12.8963H127.791V11H126.037L125.985 11.9159C125.947 12.6641 125.663 12.9995 125.031 13.0511L124.605 13.0898V14.5733H125.766V16.8824C125.766 18.4562 126.617 19.4753 128.281 19.4753C128.901 19.4753 129.597 19.3592 129.997 19.2173V17.5532C129.701 17.6693 129.275 17.7338 128.914 17.7338L128.901 17.7467Z" fill="black"/>
</svg>
